<svg width="103" height="110" viewBox="0 0 103 110" fill="none" xmlns="http://www.w3.org/2000/svg">
<path d="M50.5 104.5C44.5 101.7 14.3333 95.3333 0 92.5V83.5V0H38.5H73.5L97.5 60C105.992 75.2269 103.212 87.9885 98.693 95.8918C95.9104 100.759 92.171 105.51 87.0223 107.728C76.4311 112.289 59.3028 107.968 50.5 104.5Z" fill="url(#paint0_linear_9_23)"/>
<path d="M0 83.5V0H38.5L63.9065 26.8583C70.2913 33.6079 79.5822 40.7721 81.6614 49.8275C85.5462 66.7464 72.6456 81.637 55.3512 83.1358C48.0141 83.7717 40.4161 83.761 35 83.5H0Z" fill="url(#paint1_linear_9_23)"/>
<defs>
<linearGradient id="paint0_linear_9_23" x1="-2" y1="-3" x2="105" y2="110" gradientUnits="userSpaceOnUse">
<stop offset="0.171261" stop-color="#FBFEFF"/>
<stop offset="0.544988" stop-color="#EDFAFE"/>
<stop offset="0.910676" stop-color="#E5F8FE"/>
</linearGradient>
<linearGradient id="paint1_linear_9_23" x1="-9" y1="-2" x2="82" y2="79.5" gradientUnits="userSpaceOnUse">
<stop offset="0.154202" stop-color="white"/>
<stop offset="0.605513" stop-color="#E4F3FE"/>
<stop offset="1" stop-color="#D9EFFE"/>
</linearGradient>
</defs>
</svg>
