<svg width="725" height="725" viewBox="0 0 725 725" fill="none" xmlns="http://www.w3.org/2000/svg">
<g clip-path="url(#clip0_9_24)">
<path d="M502.43 575.766L491.117 428.688C490.879 425.64 489.773 422.724 487.93 420.285C486.086 417.845 483.583 415.986 480.716 414.925C477.848 413.864 474.737 413.648 471.75 414.3C468.763 414.953 466.026 416.447 463.862 418.607L429.921 452.548L305.47 328.098C302.47 325.097 298.4 323.411 294.156 323.411C289.913 323.411 285.843 325.097 282.843 328.098L237.588 373.352C234.587 376.353 232.902 380.423 232.902 384.666C232.902 388.91 234.587 392.979 237.588 395.98L362.039 520.431L328.098 554.372C325.938 556.536 324.443 559.273 323.791 562.26C323.138 565.247 323.355 568.358 324.415 571.225C325.476 574.093 327.336 576.596 329.775 578.439C332.214 580.283 335.13 581.389 338.178 581.626L485.256 592.94C487.557 593.116 489.868 592.793 492.031 591.992C494.195 591.191 496.16 589.932 497.791 588.3C499.422 586.669 500.681 584.704 501.482 582.541C502.283 580.377 502.607 578.066 502.43 575.766Z" fill="#794DD4"/>
<path d="M441.235 395.98L486.489 350.725C489.49 347.724 491.176 343.655 491.176 339.411C491.176 335.168 489.49 331.098 486.489 328.098L362.039 203.647L395.98 169.706C398.14 167.542 399.634 164.804 400.287 161.818C400.939 158.831 400.723 155.72 399.662 152.852C398.601 149.985 396.742 147.481 394.303 145.638C391.863 143.794 388.947 142.689 385.899 142.451L238.821 131.137C236.521 130.961 234.21 131.285 232.046 132.085C229.883 132.886 227.918 134.146 226.287 135.777C224.655 137.408 223.396 139.373 222.595 141.536C221.794 143.7 221.471 146.011 221.647 148.311L232.961 295.39C233.198 298.438 234.304 301.354 236.148 303.793C237.991 306.232 240.494 308.092 243.362 309.152C246.229 310.213 249.34 310.43 252.327 309.777C255.314 309.125 258.051 307.63 260.215 305.47L294.156 271.529L418.607 395.98C421.608 398.98 425.677 400.666 429.921 400.666C434.164 400.666 438.234 398.98 441.235 395.98Z" fill="#794DD4"/>
</g>
<defs>
<clipPath id="clip0_9_24">
<rect width="512" height="512" fill="white" transform="translate(362.039) rotate(45)"/>
</clipPath>
</defs>
</svg>
